<svg width="745" height="404" viewBox="0 0 745 404" fill="none" xmlns="http://www.w3.org/2000/svg">
<g clip-path="url(#clip0_72_299)">
<path d="M575.693 263.495C569.633 255.577 559.135 241.861 541.08 237.737C507.063 229.965 477.834 263.461 475.074 266.715C447.55 299.177 443.288 355.327 471.05 382.628C485.279 396.621 504.615 399.785 512.907 401.142C522.648 402.736 545.309 406.443 564.424 393.092C574.688 385.924 579.611 376.853 582.938 370.554C598.545 341.004 600.569 295.996 575.693 263.495ZM533.44 386.583C513.498 388.643 494.599 369.93 486.836 352.406C482.504 342.436 480.985 331.47 482.446 320.698C483.906 309.926 488.29 299.76 495.121 291.304C498.001 287.813 513.315 269.251 534.476 271.626C555.287 273.963 567.681 294.971 571.759 308.91C580.992 340.47 561.598 383.674 533.44 386.583Z" fill="#7B7A87"/>
<path d="M407.676 390.653H397.189L392.2 350.202H407.678L407.676 390.653Z" fill="#FFB6B6"/>
<path d="M407.396 387.228L396.199 382.673L395.878 382.542L389.696 387.228C386.205 387.228 382.858 388.615 380.39 391.083C377.921 393.552 376.535 396.899 376.534 400.39V400.817H410.347V387.228H407.396Z" fill="#2F2E41"/>
<path d="M538.995 309.986L536.629 320.203L496.095 315.941L499.586 300.861L538.995 309.986Z" fill="#FFB6B6"/>
<path d="M536.261 306.605L535.653 309.215L535.591 309.484L528.648 319.359L528.437 319.653L531.603 326.732C531.213 328.416 531.158 330.16 531.443 331.865C531.727 333.569 532.345 335.202 533.26 336.668C534.176 338.134 535.371 339.405 536.778 340.409C538.185 341.413 539.776 342.13 541.46 342.518L541.872 342.613L549.502 309.675L536.261 306.605Z" fill="#2F2E41"/>
<path d="M400.563 173.232L458.392 175.256L458.794 174.67C458.794 174.67 463.727 186.18 463.727 196.045C463.727 199.325 461.446 220.779 462.606 224.837C462.75 225.342 461.757 226.579 462.083 228.93C462.294 230.455 463.459 229.282 463.727 231.396C463.919 232.914 461.868 233.751 462.083 235.507C462.317 237.424 465.139 243.637 465.392 245.77C468.096 268.482 463.696 274.384 463.696 274.384C463.696 274.384 513.154 295.108 516.213 295.737C521.346 296.793 524.812 306.128 521.967 308.069C520.613 308.993 516.104 326.212 516.104 326.212C515.142 326.386 512.133 324.876 514.05 321.307C514.403 320.65 512.298 322.322 511.948 321.535C511.576 320.699 506.306 324.37 505.88 323.441C502.054 315.102 454.179 303.546 448.612 297.612C440.386 288.845 435.177 277.679 433.745 265.743L428.975 221.938L424.599 241.794L420.977 245.372L421.971 253.716L421.799 261.814L412.756 295.521C412.756 295.521 411.4 358.469 413.578 360.468C414.758 361.551 419.764 374.886 410.29 376.088L393.076 374.76C393.076 374.76 390.757 369.873 391.916 368.133C393.076 366.394 393.007 366.868 391.592 364.022C390.177 361.175 390.757 356.351 390.757 356.351C388.502 333.682 387.612 310.898 388.093 288.122C388.956 250.714 394.185 207.738 394.185 206.863C394.229 205.967 394.064 205.074 393.703 204.254V201.893L395.924 193.526L400.563 173.232Z" fill="#2F2E41"/>
<path d="M463.572 186.759C448.971 189.285 439.18 188.323 433.154 179.36C425.293 169.35 410.997 181.17 398.935 185.564L397.505 184.019L395.072 181.396L397.308 178.864L395.072 173.981L396.938 167.955L399.322 167.519L398.681 162.331L397.678 159.298L400.621 156.067L403.12 148.002L401.32 131.124C398.856 107.989 403.63 84.6596 414.983 64.3521L421.815 58.2191L424.651 55.6706L428.458 48.5675L432.478 49.0361L443.362 50.2939L443.732 51.1818L446.404 57.6271L456.111 68.0534C457.483 69.5281 458.526 71.2781 459.17 73.1872C459.815 75.0962 460.045 77.1205 459.846 79.1254L459.566 81.937L459.361 83.9594L458.391 93.6932L454.436 133.459L454.14 135.572L450.959 158.435C456.13 163.433 456.445 162.343 458.64 171.139C458.886 172.117 461.747 174.296 461.928 175.25C462.183 176.598 463.572 186.759 463.572 186.759Z" fill="#3F3D56"/>
<path d="M433.926 44.3773C444.367 44.3773 452.831 35.913 452.831 25.4718C452.831 15.0306 444.367 6.56638 433.926 6.56638C423.485 6.56638 415.021 15.0306 415.021 25.4718C415.021 35.913 423.485 44.3773 433.926 44.3773Z" fill="#FFB6B6"/>
<path d="M453.705 11.2403C452.457 9.8913 450.852 8.92284 449.077 8.44661C447.302 7.97037 445.428 8.00577 443.672 8.54875C442.902 6.34614 441.543 4.39692 439.742 2.91334C437.941 1.42976 435.768 0.468691 433.459 0.134762C431.149 -0.199167 428.793 0.106852 426.645 1.0195C424.498 1.93214 422.642 3.41642 421.28 5.31074C420.657 5.03104 419.973 4.9169 419.293 4.97938C418.613 5.04186 417.961 5.27885 417.399 5.66739C416.284 6.46006 415.386 7.51973 414.787 8.74937C413.242 11.6858 412.521 14.9864 412.702 18.2998C412.884 21.6132 413.96 24.8154 415.817 27.5656C415.077 26.0717 417.158 28.6446 419.185 27.9705C420.927 27.514 428.08 22.927 429.866 23.1589C431.651 23.3908 432.23 21.9512 433.976 21.5147C435.687 20.9676 440.053 28.0385 440.928 32.7171C441.094 33.6038 441.496 34.7054 442.398 34.7256C443.509 34.7505 443.841 33.1599 444.778 32.5626C445.22 32.338 445.731 32.2936 446.205 32.4388C446.678 32.5839 447.077 32.9072 447.317 33.3406C447.536 33.7861 447.645 34.2774 447.636 34.7736C447.627 35.2699 447.499 35.7567 447.264 36.1936C446.785 37.0622 446.169 37.8477 445.44 38.5198L445.925 38.7864C446.403 39.1286 446.985 39.2939 447.571 39.2541C448.158 39.2143 448.712 38.9718 449.139 38.5682C450.944 39.3828 455.856 34.7887 455.204 32.0093C456.575 28.6023 457.325 24.9773 457.418 21.3059C457.493 17.6027 456.167 14.0075 453.705 11.2403Z" fill="#2F2E41"/>
<path d="M307.998 74.9446C308.697 75.6021 309.533 76.0982 310.445 76.3979C311.357 76.6976 312.323 76.7938 313.277 76.6795C314.23 76.5652 315.147 76.2433 315.962 75.7365C316.777 75.2297 317.472 74.5502 317.996 73.746L358.408 83.4169L354.373 71.9804L315.721 64.3467C314.311 63.5553 312.661 63.3084 311.081 63.6528C309.502 63.9972 308.104 64.909 307.152 66.2153C306.2 67.5216 305.76 69.1318 305.916 70.7406C306.072 72.3495 306.813 73.8453 307.998 74.9446Z" fill="#FFB8B8"/>
<path d="M428.732 67.9098L425.495 66.2214L410.728 65.9893L410.188 65.9838L410.158 65.9864L398.836 65.8132L344.167 64.9567L341.968 66.8763L338.588 64.8693L334.758 62.9275L331.241 64.7542L328.234 64.7071L327.776 66.7245L327.772 66.7317L327.759 66.7901L325.722 75.5918L325.719 75.599L325.744 77.675L329.28 81.4864L331.156 82.9238L335.049 84.6455L337.745 81.435L340.905 84.7185L353.864 87.1041C375.528 93.0725 395.476 95.945 410.786 90.4285L412.709 90.3386L427.906 89.6155C429.983 89.519 431.985 88.8094 433.66 87.5762C435.334 86.343 436.606 84.6414 437.315 82.6862L437.319 82.6791C437.799 81.3511 438.005 79.9393 437.923 78.5295C437.856 77.2337 437.544 75.9624 437.003 74.7828C436.034 72.6367 434.377 70.8749 432.294 69.7759L428.732 67.9098Z" fill="#3F3D56"/>
<path d="M654.142 378.295C654.872 378.321 655.593 378.123 656.207 377.726C656.82 377.329 657.297 376.753 657.573 376.077C657.848 375.4 657.909 374.655 657.747 373.942C657.585 373.23 657.207 372.584 656.666 372.093C656.573 371.737 656.506 371.481 656.413 371.125C657.094 369.344 658.292 367.806 659.853 366.711C661.414 365.615 663.267 365.01 665.173 364.974C667.08 364.938 668.954 365.472 670.556 366.508C672.157 367.544 673.412 369.034 674.161 370.788C678.479 380.634 684.043 390.816 681.428 401.731C699.022 363.504 692.464 316.223 665.617 283.931C658.244 279.96 652.23 272.838 650.603 264.517C654.245 265.712 658.743 262.716 655.977 258.918C654.78 257.468 653.572 256.029 652.375 254.579C666.025 239.762 682.675 262.687 667.685 282.653C672.71 288.831 677.075 295.518 680.709 302.604C679.814 295.051 680.724 287.394 683.365 280.262C686.047 273.613 691.14 267.987 695.616 262.218C701.059 255.19 712.429 258.3 713.255 267.146C708.186 268.865 707.596 276.216 713.422 277.166C712.055 293.65 701.44 308.887 686.69 316.251C692.308 331.553 694.601 347.878 693.415 364.136C695.85 345.125 716.186 340.323 730.359 332.642C731.26 332.052 732.313 331.737 733.391 331.735C734.468 331.733 735.522 332.045 736.425 332.633C737.328 333.22 738.04 334.057 738.475 335.043C738.91 336.028 739.049 337.119 738.875 338.181C736.917 339 735.044 340.01 733.286 341.199C732.462 341.764 731.833 342.571 731.485 343.507C731.137 344.444 731.088 345.466 731.344 346.432C731.599 347.398 732.147 348.262 732.913 348.904C733.679 349.546 734.624 349.936 735.62 350.02C728.609 367.859 710.159 379.969 691.092 380.084C689.335 388.063 686.754 395.839 683.39 403.285L655.092 403.554C654.987 403.241 654.893 402.917 654.799 402.603C657.42 402.743 660.048 402.561 662.624 402.062C655.616 393.923 650.217 389.788 654.141 378.295L654.142 378.295Z" fill="#F2F2F2"/>
<path d="M85.1507 298.295C84.4205 298.321 83.6997 298.123 83.086 297.726C82.4724 297.329 81.9955 296.753 81.7201 296.077C81.4446 295.4 81.3838 294.655 81.546 293.942C81.7082 293.23 82.0855 292.584 82.6268 292.093C82.7201 291.737 82.787 291.481 82.8802 291.125C82.1985 289.344 81.0005 287.806 79.4396 286.711C77.8787 285.615 76.0262 285.01 74.1193 284.974C72.2125 284.938 70.3383 285.472 68.737 286.508C67.1357 287.544 65.8803 289.034 65.1317 290.788C60.814 300.634 55.2502 310.816 57.865 321.731C40.271 283.504 46.8284 236.223 73.6753 203.931C81.049 199.96 87.0626 192.838 88.6898 184.517C85.0478 185.712 80.5498 182.716 83.3157 178.918C84.5127 177.468 85.7211 176.029 86.918 174.579C73.2679 159.762 56.6175 182.687 71.6076 202.653C66.5829 208.831 62.2178 215.518 58.5836 222.604C59.4792 215.051 58.569 207.394 55.9279 200.262C53.2457 193.613 48.1532 187.987 43.6764 182.218C38.2334 175.19 26.8633 178.3 26.0376 187.146C31.1063 188.865 31.6969 196.216 25.8712 197.166C27.2377 213.65 37.8529 228.887 52.603 236.251C46.9843 251.553 44.6918 267.878 45.8781 284.136C43.4432 265.125 23.1068 260.323 8.93377 252.642C8.03267 252.052 6.97933 251.737 5.90223 251.735C4.82513 251.733 3.77083 252.045 2.86796 252.633C1.96508 253.22 1.25265 254.057 0.817572 255.043C0.382494 256.028 0.243588 257.119 0.417776 258.181C2.37624 259 4.24859 260.01 6.00725 261.199C6.83124 261.764 7.46016 262.571 7.80782 263.507C8.15548 264.444 8.20486 265.466 7.94918 266.432C7.6935 267.398 7.14529 268.262 6.37968 268.904C5.61407 269.546 4.66853 269.936 3.6727 270.02C10.6838 287.859 29.1343 299.969 48.2013 300.084C49.9577 308.063 52.5387 315.839 55.9026 323.285L84.201 323.554C84.3055 323.241 84.3999 322.917 84.4942 322.603C81.8733 322.743 79.2451 322.561 76.6683 322.062C83.6765 313.923 89.0758 309.788 85.1516 298.295L85.1507 298.295Z" fill="#F2F2F2"/>
<path d="M78.264 296.588C131.433 287.984 164.27 375.765 198.563 370.24C261.41 360.116 235.36 45.1658 284.49 42.4874C326.371 40.2043 380.095 179.186 424.465 262.567C447.787 306.394 460.465 337.567 460.465 337.567C460.465 337.567 441.059 431.735 413.465 394.567C374.046 341.47 344.406 155.527 322.544 164.014C289.069 177.008 326.826 336.881 246.437 386.198C176.22 429.275 39.065 368.071 38.9827 329.731C38.9511 315.007 59.1288 299.685 78.264 296.588Z" fill="#7B7A87"/>
<path d="M333.758 278.63C322.923 281.109 308.695 288.773 309.467 295.836C310.294 303.406 328.371 310.421 342.867 305.957C354.76 302.295 365.582 290.495 363.11 283.69C360.558 276.666 344.294 276.219 333.758 278.63Z" fill="#7B7A87"/>
<path d="M618.219 253.222C621.716 247.3 626.718 238.524 623.049 232.304C618.041 223.813 602.508 212.491 592.843 223.535C585.497 231.929 587.146 235.285 587.245 248.316C587.513 283.891 567.373 359.865 588.423 396.018C592.363 402.786 614.142 401.444 622.771 402.286C632.335 403.218 642.713 393.92 642.122 383.158C641.593 373.52 632.536 370.713 623.486 364.374C590.938 341.574 600.109 283.887 618.219 253.222Z" fill="#7B7A87"/>
<path d="M206.873 49.457C206.653 52.097 206.44 54.737 206.234 57.377C206.075 60.4691 205.644 63.5411 204.944 66.557C204.783 67.3939 204.423 68.1796 203.894 68.847C202.954 69.917 204.694 76.177 203.404 76.777C202.094 77.4009 200.687 77.7966 199.244 77.947C199.184 77.507 199.104 77.067 199.014 76.637C199.004 76.587 198.994 76.547 198.984 76.497C198.575 74.5452 197.82 72.6824 196.754 70.997C197.005 72.994 196.782 75.0221 196.104 76.917C195.994 77.227 195.864 77.537 195.724 77.847C190.054 77.007 185.144 73.177 181.274 73.217C178.923 65.3335 177.266 57.2594 176.324 49.087C176.074 46.907 175.934 44.487 177.274 42.757C178.464 41.217 180.494 40.657 182.394 40.247C188.601 38.9059 194.944 38.2984 201.294 38.437L190.303 35.877C193.39 35.7029 196.485 35.9962 199.483 36.747C202.433 37.637 205.223 39.587 206.363 42.457C207.233 44.647 207.053 47.107 206.873 49.457Z" fill="#2F2E41"/>
<path d="M144.977 381.87H134.398L129.365 341.065L144.979 341.066L144.977 381.87Z" fill="#FFB6B6"/>
<path d="M113.047 397.479C113.052 398.664 113.525 399.8 114.362 400.638C115.199 401.477 116.333 401.952 117.518 401.959H137.433L138.05 400.681L140.867 394.868L141.958 400.681L142.199 401.959H149.711L149.603 400.672L147.6 376.652L144.98 376.491L133.659 375.821L130.878 375.651V382.823C128.768 385.067 112.206 393.554 113.047 397.479Z" fill="#2F2E41"/>
<path d="M268.914 370.355L259.713 375.576L235.199 342.569L248.779 334.865L268.914 370.355Z" fill="#FFB6B6"/>
<path d="M248.845 399.688C249.431 400.72 250.402 401.478 251.545 401.795C252.688 402.112 253.911 401.962 254.944 401.378L255.99 400.788H255.999L272.265 391.55L271.747 383.69L276.415 389.199L279.857 387.24L282.943 385.488L280.215 381.499L268.617 364.518L266.256 365.68L256.071 370.679L253.585 371.904L257.117 378.137C256.393 381.142 246.18 396.683 248.845 399.688Z" fill="#2F2E41"/>
<path d="M197.476 181.571C209.868 182.016 207.965 211.373 211.833 236.906C215.284 259.687 225.379 278.925 222.003 279.743L255.416 342.013C242.351 354.149 227.019 362.197 207.857 363.332C187.063 344.224 181.361 300.253 176.586 254.752L171.374 294.71L178.324 358.12L147.582 365.555L126.319 364.036C108.297 291.343 142.393 209.132 157.072 177.897L197.476 181.571Z" fill="#2F2E41"/>
<path d="M210.622 166.382L216.251 149.495L220.271 143.866L221.88 127.784C221.88 84.361 212.194 91.5918 212.194 91.5918L199.56 76.3197L185.186 75.8705L173.828 75.5155L164.385 91.196C160.224 92.6645 156.52 95.1966 153.641 98.5404C150.762 101.884 148.809 105.923 147.975 110.256L145.361 123.836L155.137 153.516L154.706 151.31C150.104 159.806 151.275 161.084 155.085 167.462L155.275 169.766C155.451 171.838 156.272 173.802 157.624 175.383C158.975 176.963 160.788 178.08 162.807 178.576C203.522 188.723 207.753 206.472 212.987 199.144C214.203 197.441 209.042 177.119 210.802 177.295C215.625 177.777 210.622 166.382 210.622 166.382Z" fill="#E6E6E6"/>
<path d="M238.484 229.231C237.655 228.468 237.001 227.534 236.569 226.493C236.136 225.453 235.935 224.331 235.979 223.205C236.022 222.079 236.31 220.976 236.822 219.973C237.334 218.969 238.058 218.089 238.943 217.392L228.856 179.953L238.525 174.617L250.182 219.171C251.243 220.749 251.689 222.662 251.434 224.546C251.18 226.431 250.243 228.157 248.801 229.397C247.359 230.637 245.512 231.305 243.611 231.274C241.709 231.244 239.885 230.517 238.484 229.231Z" fill="#FFB6B6"/>
<path d="M210.706 90.4994C210.706 90.4994 228.659 95.9666 230.239 105.512C231.818 115.057 234.578 123.478 233.865 127.382C233.151 131.287 242.057 157.42 240.321 160.426C238.586 163.431 243.255 164.082 241.643 169.01C240.031 173.937 239.132 174.96 240.154 175.858C241.177 176.757 245.588 196.297 245.588 196.297L232.137 200.205L207.364 138.82L210.706 90.4994Z" fill="#E6E6E6"/>
<path d="M139.98 229.231C140.809 228.468 141.462 227.534 141.895 226.493C142.327 225.453 142.528 224.331 142.485 223.205C142.441 222.079 142.153 220.976 141.641 219.973C141.129 218.969 140.405 218.089 139.52 217.392L149.608 179.953L139.938 174.617L128.282 219.171C127.22 220.749 126.775 222.662 127.029 224.546C127.284 226.431 128.221 228.157 129.663 229.397C131.104 230.637 132.951 231.305 134.853 231.274C136.754 231.244 138.578 230.517 139.98 229.231Z" fill="#FFB6B6"/>
<path d="M167.757 90.4994C167.757 90.4994 149.804 95.9666 148.224 105.512C146.645 115.057 143.886 123.478 144.599 127.382C145.312 131.287 136.406 157.42 138.142 160.426C139.878 163.431 135.209 164.082 136.821 169.01C138.433 173.937 139.332 174.96 138.309 175.858C137.286 176.757 132.875 196.297 132.875 196.297L146.326 200.205L171.099 138.82L167.757 90.4994Z" fill="#E6E6E6"/>
<path d="M182.458 73.4143C194.818 73.4143 204.837 63.3944 204.837 51.0343C204.837 38.6742 194.818 28.6544 182.458 28.6544C170.097 28.6544 160.078 38.6742 160.078 51.0343C160.078 63.3944 170.097 73.4143 182.458 73.4143Z" fill="#FFB6B6"/>
<path d="M205.163 86.5298C196.723 79.0248 211.113 57.5882 199.873 43.282L198.523 42.2716C197.506 44.2078 195.854 45.7352 193.843 46.5975C193.424 44.6467 192.72 42.7683 191.753 41.0226C191.996 43.185 191.802 45.3742 191.183 47.4604C190.553 47.5398 190.103 47.449 189.943 47.1652C190.143 48.9023 184.833 49.7652 185.943 47.0629C185.951 47.0358 185.961 47.0092 185.973 46.9835C184.603 49.7425 181.783 51.0255 179.333 52.5584C176.883 54.0798 174.393 56.6231 174.633 59.7796C174.833 62.3342 176.783 64.2417 178.743 65.5134C180.703 66.7964 182.903 67.7955 184.323 69.7825C186.713 73.1206 186.153 78.0142 184.943 82.079C184.701 82.7281 184.306 83.3089 183.79 83.7716C183.275 84.2343 182.655 84.5652 181.983 84.7358C181.584 82.5468 180.831 80.4376 179.753 78.491C180.005 80.7524 179.784 83.0415 179.103 85.2127C177.646 85.2767 176.191 85.044 174.826 84.5287C173.461 84.0135 172.215 83.2264 171.163 82.2152L172.673 88.9141C170.243 88.4032 167.793 88.9822 165.323 89.4251C165.259 88.667 165.156 87.9129 165.013 87.1656C164.625 84.9193 163.861 82.7545 162.753 80.7619C163.063 83.5309 162.66 86.333 161.583 88.9028C161.463 89.198 161.333 89.4932 161.193 89.777C157.393 89.5045 153.603 87.2905 154.323 81.534C154.64 79.6868 155.41 77.947 156.563 76.4701C158.523 73.7223 148.533 70.7817 149.143 67.4663C150.053 62.55 159.163 58.2013 158.443 53.2396C157.803 48.7433 157.929 38.5939 160.403 35.0958C163.978 30.042 160.013 19.5872 185.423 25.5243C194.877 27.733 198.153 18.4599 212.403 46.777C214.846 51.6319 205.963 49.9629 211.183 60.37C216.403 70.7771 201.453 79.0247 205.163 86.5298Z" fill="#2F2E41"/>
<path d="M7.52202e-06 402.279C-0.00272248 401.708 0.738004 401.244 1.65456 401.243H743.142C744.062 401.243 744.807 401.707 744.807 402.279C744.807 402.852 744.062 403.316 743.142 403.316H1.66447C0.747917 403.317 0.00271752 402.856 7.52202e-06 402.285V402.279Z" fill="#CCCCCC"/>
<path d="M380.953 188.939C381.86 188.624 382.687 188.114 383.376 187.445C384.065 186.776 384.598 185.964 384.939 185.067C385.28 184.169 385.42 183.208 385.349 182.251C385.279 181.293 384.999 180.363 384.53 179.525L411.843 148.211L399.84 146.48L375.147 177.181C373.793 178.062 372.808 179.41 372.381 180.969C371.953 182.528 372.112 184.189 372.828 185.639C373.544 187.088 374.766 188.224 376.264 188.833C377.761 189.441 379.43 189.479 380.953 188.939Z" fill="#FFB8B8"/>
<path d="M392.908 171.515L396.788 167.234L400.533 166.912L400.788 166.593L401.766 165.345L402.141 161.867L405.017 161.193L411.426 153.006L412.405 151.376L439.312 119.939L444.801 110.798L445.663 108.941L448.351 103.159L447.997 88.5766C448.585 87.3173 448.917 85.9536 448.973 84.5648C449.03 83.176 448.809 81.7899 448.325 80.4871C448.17 80.065 447.988 79.653 447.781 79.2538L447.63 78.9703C447.237 78.272 446.765 77.6207 446.225 77.0289L446.216 77.015C445.264 75.9719 444.107 75.1367 442.817 74.5617C441.811 74.1027 440.74 73.8058 439.642 73.6819C437.107 73.401 434.556 74.0423 432.456 75.4885L429.154 77.7716L426.156 79.8601L419.295 92.4899L418.845 93.3134L418.829 93.3336L397.702 132.204L391.333 143.925L390.363 145.705L390.272 150.912L387.209 151.492L383.593 154.2L383.23 158.81L381.528 166.245L381.269 166.664L382.854 167.604L383.007 167.691L383.296 167.946L387.33 171.408L389.776 173.514L389.857 173.579L390.492 174.178L392.908 171.515Z" fill="#3F3D56"/>
<path d="M160.948 37.7573C160.999 37.7763 161.043 37.7953 161.093 37.8143C161.189 37.8567 161.288 37.8927 161.388 37.9219C162.03 38.1577 162.7 38.3116 163.381 38.3798C163.671 38.4112 163.963 38.4266 164.255 38.426C164.629 38.4273 165.003 38.403 165.374 38.3533C165.787 38.3027 166.195 38.2197 166.595 38.1049C166.784 38.0541 166.971 37.9937 167.155 37.9239C168.405 37.4799 169.535 36.7519 170.456 35.7973C171.377 34.8427 172.065 33.6874 172.464 32.4223V32.416C172.506 32.2923 172.542 32.1665 172.572 32.039C172.759 31.3312 172.853 30.6022 172.854 29.8701V29.8575C172.859 28.0723 172.302 26.3308 171.263 24.8793C170.636 23.991 169.912 23.8425 170.319 22.8268C171.614 19.5866 166.314 16.938 163.186 18.3627C163.073 18.3519 162.96 18.3474 162.846 18.3493C160.74 18.3439 159.958 21.4548 158.703 23.2061L158.739 23.218C159.057 23.3293 159.332 23.5373 159.526 23.8128C159.72 24.0882 159.823 24.4175 159.821 24.7544C159.819 25.0914 159.711 25.4192 159.514 25.692C159.316 25.9649 159.038 26.1691 158.718 26.2762C157.882 26.5486 157.037 26.7892 156.184 26.9981C153.369 30.3227 156.596 40.0492 160.948 37.7573Z" fill="#2F2E41"/>
<path d="M171.016 24.0389C171.131 27.0267 170.365 29.9824 168.814 32.5385C167.263 35.0946 164.994 37.1384 162.291 38.4159C161.193 38.9132 160.237 37.2854 161.343 36.7844C163.758 35.6702 165.788 33.8633 167.175 31.5931C168.561 29.3229 169.242 26.6919 169.13 24.0341C169.067 22.8208 170.954 22.8292 171.016 24.0389Z" fill="#7B7A87"/>
</g>
<defs>
<clipPath id="clip0_72_299">
<rect width="744.807" height="403.554" fill="white"/>
</clipPath>
</defs>
</svg>
